<svg width="52" height="52" viewBox="0 0 52 52" fill="none" xmlns="http://www.w3.org/2000/svg">
<rect width="52" height="52" rx="17" fill="black"/>
<path d="M9.51562 23.4545V24.0938H6.52415V23.4545H9.51562ZM12.3569 30.9844L10.2475 23.1477H10.9379L13.0472 30.9844H12.3569ZM17.3291 30V30.7031H13.2382V30H17.3291ZM18.2791 27.2386C18.2791 26.4332 18.3835 25.6928 18.5923 25.0174C18.8033 24.3398 19.1037 23.7166 19.4936 23.1477H20.1584C20.005 23.3587 19.8612 23.6186 19.7269 23.9276C19.5948 24.2344 19.4787 24.5721 19.3786 24.9407C19.2784 25.3072 19.1996 25.6864 19.142 26.0785C19.0866 26.4705 19.0589 26.8572 19.0589 27.2386C19.0589 27.7457 19.108 28.2603 19.206 28.7823C19.304 29.3043 19.4361 29.7891 19.6023 30.2365C19.7685 30.6839 19.9538 31.0483 20.1584 31.3295H19.4936C19.1037 30.7607 18.8033 30.1385 18.5923 29.4631C18.3835 28.7855 18.2791 28.044 18.2791 27.2386ZM24.6761 23.241L23.9921 23.466C24.2171 23.943 24.7211 25.329 24.8741 25.842L25.5761 25.599C25.4231 25.095 24.8741 23.664 24.6761 23.241ZM28.6811 23.817L27.8441 23.574C27.6731 24.933 27.1151 26.373 26.4041 27.282C25.4951 28.434 24.1541 29.298 22.8761 29.676L23.4881 30.297C24.7661 29.847 26.0891 28.92 27.0161 27.696C27.7631 26.724 28.2401 25.446 28.5191 24.321C28.5551 24.186 28.6181 23.961 28.6811 23.817ZM22.1651 23.781L21.4631 24.033C21.6701 24.429 22.2911 25.95 22.4621 26.508L23.1821 26.247C22.9661 25.653 22.4081 24.285 22.1651 23.781ZM31.8822 27.2386C31.8822 28.044 31.7767 28.7855 31.5658 29.4631C31.357 30.1385 31.0576 30.7607 30.6677 31.3295H30.0029C30.1563 31.1186 30.2991 30.8587 30.4312 30.5497C30.5654 30.2429 30.6826 29.9062 30.7828 29.5398C30.8829 29.1712 30.9607 28.7908 31.0161 28.3988C31.0736 28.0046 31.1024 27.6179 31.1024 27.2386C31.1024 26.7315 31.0534 26.217 30.9553 25.695C30.8573 25.1729 30.7252 24.6882 30.559 24.2408C30.3928 23.7933 30.2075 23.429 30.0029 23.1477H30.6677C31.0576 23.7166 31.357 24.3398 31.5658 25.0174C31.7767 25.6928 31.8822 26.4332 31.8822 27.2386ZM36.9199 30V30.7031H32.829V30H36.9199ZM39.9154 23.1477L37.806 30.9844H37.1157L39.2251 23.1477H39.9154ZM43.6348 23.4545V24.0938H40.6433V23.4545H43.6348Z" fill="white"/>
</svg>
